<svg width="843" height="140" viewBox="0 0 843 140" fill="none" xmlns="http://www.w3.org/2000/svg">
<g clip-path="url(#clip0_2:18)">
<path fill-rule="evenodd" clip-rule="evenodd" d="M139.8 69.9C139.8 108.505 108.505 139.8 69.9 139.8C31.2953 139.8 0 108.505 0 69.9C0 31.2953 31.2953 0 69.9 0C108.505 0 139.8 31.2953 139.8 69.9ZM62.5 76.5L67.7 61.1L65.8 60.7C59.7 59.5 56.7 55.9 56.7 51.2C56.7 45.6 61.9 40.6 69.8 40.6C80.4 40.6 84.2 47.8 85.1 52.4L99.8 48C97.9 38.5 90.1 26.2 69.8 26.2C54 26.2 40.6 37.6 40.6 52.5C40.5 65.1 49.1 73.8 62.5 76.5ZM77.5 63L77 62.9L71.7 78.3L74.1 78.8C80.6 80.1 84.3 83.9 84.3 88.7C84.3 94.6 79.5 99 70.7 99C58.9 99 53.1 91.5 52.4 83.3L51.6 83.5L37.4 88C39 99.8 48.8 113.7 70.7 113.7C90.2 113.7 101 100.7 101 87.8C100.9 75.9 92.8 66 77.5 63Z" fill="#7200FF"/>
<path d="M222.4 54.8C221.7 50.7 218.3 44.4 209 44.4C202 44.4 197.4 48.9 197.4 53.8C197.4 57.9 200 61.1 205.4 62.1L215.7 64.1C229.1 66.7 236.3 75.4 236.3 85.9C236.3 97.2 226.8 108.7 209.7 108.7C190.1 108.7 181.5 96.1 180.3 85.6L193.6 82.1C194.2 89.4 199.3 95.9 209.7 95.9C217.4 95.9 221.7 92 221.7 86.8C221.7 82.5 218.5 79.2 212.7 78.1L202.4 76C190.6 73.6 183 66 183 54.9C183 41.8 194.8 31.8 208.7 31.8C226.6 31.8 233.5 42.6 235.1 51L222.4 54.8Z" fill="black"/>
<path d="M259.4 77.6L272 75.7C274.9 75.3 275.9 73.8 275.9 72.1C275.9 68.5 273.1 65.4 267.3 65.4C261.3 65.4 257.9 69.3 257.5 73.7L245.2 71.1C246 63.1 253.4 54.2 267.2 54.2C283.4 54.2 289.5 63.4 289.5 73.7V98.9C289.5 101.6 289.8 105.2 290.1 107H277.4C277.1 105.6 276.9 102.8 276.9 100.9C274.3 105 269.4 108.5 261.8 108.5C250.9 108.5 244.2 101.1 244.2 93.1C244.1 84 250.9 78.9 259.4 77.6ZM275.9 86.3V84L264.3 85.8C260.8 86.3 258 88.3 258 92.3C258 95.3 260.2 98.2 264.7 98.2C270.5 98.2 275.9 95.4 275.9 86.3Z" fill="black"/>
<path d="M303.3 126.8V55.8H316.7V62C319 58 324.7 54.6 332.4 54.6C347.4 54.6 356 66.1 356 81.2C356 96.7 346.3 108.2 331.9 108.2C324.8 108.2 319.6 105.4 317.1 102V126.8H303.3ZM329.8 67.1C322.7 67.1 317 72.4 317 81.5C317 90.6 322.7 96 329.8 96C336.9 96 342.5 90.7 342.5 81.5C342.5 72.4 336.9 67.1 329.8 67.1Z" fill="black"/>
<path d="M373.9 30.5C378.7 30.5 382.4 34.4 382.4 39.1C382.4 43.7 378.7 47.5 373.9 47.5C369.2 47.5 365.4 43.6 365.4 39.1C365.4 34.3 369.2 30.5 373.9 30.5ZM367.1 107.1V55.8H380.9V107H367.1V107.1Z" fill="black"/>
<path d="M441.6 92.4C439 101.2 430.9 108.6 418.3 108.6C404.2 108.6 391.9 98.5 391.9 81.2C391.9 64.9 404 54.2 417.1 54.2C432.9 54.2 442.4 64.3 442.4 80.7C442.4 82.7 442.2 84.8 442.2 85H405.6C405.9 91.8 411.6 96.7 418.5 96.7C425 96.7 428.5 93.5 430.2 88.9L441.6 92.4ZM428.7 75.6C428.5 70.5 425.2 65.5 417.2 65.5C410 65.5 406.1 70.9 405.7 75.6H428.7Z" fill="black"/>
<path d="M467.1 107.1H453.3V55.8H466.7V62.1C469.8 56.8 476 54.4 481.5 54.4C494.2 54.4 500 63.5 500 74.7V107H486.2V77.2C486.2 71.5 483.4 67 476.7 67C470.7 67 467.1 71.7 467.1 77.6V107.1Z" fill="black"/>
<path d="M587.3 107.1V76.5H555.1V107.1H540.7V33.3H555.1V63H587.3V33.3H601.8V107.1H587.3Z" fill="black"/>
<path d="M663.2 92.4C660.6 101.2 652.5 108.6 639.9 108.6C625.8 108.6 613.5 98.5 613.5 81.2C613.5 64.9 625.6 54.2 638.7 54.2C654.5 54.2 664 64.3 664 80.7C664 82.7 663.8 84.8 663.8 85H627.2C627.5 91.8 633.2 96.7 640.1 96.7C646.6 96.7 650.1 93.5 651.8 88.9L663.2 92.4ZM650.3 75.6C650.1 70.5 646.8 65.5 638.8 65.5C631.6 65.5 627.7 70.9 627.3 75.6H650.3Z" fill="black"/>
<path d="M687 77.6L699.6 75.7C702.5 75.3 703.5 73.8 703.5 72.1C703.5 68.5 700.7 65.4 694.9 65.4C688.9 65.4 685.5 69.3 685.1 73.7L672.8 71.1C673.6 63.1 681 54.2 694.8 54.2C711 54.2 717.1 63.4 717.1 73.7V98.9C717.1 101.6 717.4 105.2 717.7 107H705C704.7 105.6 704.5 102.8 704.5 100.9C701.9 105 697 108.5 689.4 108.5C678.5 108.5 671.8 101.1 671.8 93.1C671.7 84 678.5 78.9 687 77.6ZM703.5 86.3V84L691.9 85.8C688.4 86.3 685.6 88.3 685.6 92.3C685.6 95.3 687.8 98.2 692.3 98.2C698 98.2 703.5 95.4 703.5 86.3Z" fill="black"/>
<path d="M730.9 107.1V31.7H744.7V107.1H730.9Z" fill="black"/>
<path d="M776.6 55.8H786.9V68.1H776.6V89.5C776.6 94 778.7 95.4 782.6 95.4C784.3 95.4 786.1 95.2 786.9 95V106.5C785.7 107 783.2 107.7 779.1 107.7C769.1 107.7 762.9 101.8 762.9 91.9V68.1H753.6V55.8H756.2C761.6 55.8 764.1 52.3 764.1 47.7V40.5H776.6V55.8Z" fill="black"/>
<path d="M810 107.1H796.2V31.7H810V60.1C813.3 56.1 819 54.5 823.8 54.5C836.8 54.5 842.8 63.6 842.8 74.8V107.1H829V77.2C829 71.5 826.2 67 819.5 67C813.7 67 810.2 71.4 809.9 77V107.1H810Z" fill="black"/>
</g>
<defs>
<clipPath id="clip0_2:18">
<rect width="842.9" height="139.9" fill="white"/>
</clipPath>
</defs>
</svg>
